M48
;DRILL file {KiCad (5.0.2)-1} date 01/03/2019 20:37:26
;FORMAT={-:-/ absolute / inch / decimal}
FMAT,2
INCH,TZ
T1C0.0120
T2C0.0669
T3C0.1260
T4C0.1575
%
G90
G05
T2
X5.75Y-2.49
X5.75Y-2.89
T3
X5.0295Y-3.2382
X5.0295Y-2.1358
X6.2894Y-2.687
T4
X5.75Y-2.69
T1
X5.532Y-2.345G85X5.532Y-2.095
G05
X5.532Y-3.285G85X5.532Y-3.035
G05
X5.666Y-2.095G85X5.666Y-2.061
G05
X5.666Y-3.319G85X5.666Y-3.285
G05
X5.666Y-2.061G85X5.764Y-2.061
G05
X5.666Y-3.319G85X5.764Y-3.319
G05
X5.764Y-2.095G85X5.764Y-2.061
G05
X5.764Y-3.319G85X5.764Y-3.285
G05
X5.532Y-2.095G85X6.004Y-2.095
G05
X5.532Y-2.345G85X6.004Y-2.345
G05
X5.532Y-3.035G85X6.004Y-3.035
G05
X5.532Y-3.285G85X6.004Y-3.285
G05
X6.004Y-2.345G85X6.004Y-2.095
G05
X6.004Y-3.285G85X6.004Y-3.035
G05
X6.007Y-2.166G85X6.053Y-2.166
G05
X6.007Y-2.274G85X6.053Y-2.274
G05
X6.007Y-3.106G85X6.053Y-3.106
G05
X6.007Y-3.214G85X6.053Y-3.214
G05
X6.056Y-2.274G85X6.056Y-2.166
G05
X6.056Y-3.214G85X6.056Y-3.106
G05
T0
M30
