G04 #@! TF.GenerationSoftware,KiCad,Pcbnew,(5.0.2)-1*
G04 #@! TF.CreationDate,2019-03-01T20:36:07+00:00*
G04 #@! TF.ProjectId,CherrySwitch,43686572-7279-4537-9769-7463682e6b69,rev?*
G04 #@! TF.SameCoordinates,Original*
G04 #@! TF.FileFunction,Copper,L1,Top*
G04 #@! TF.FilePolarity,Positive*
%FSLAX46Y46*%
G04 Gerber Fmt 4.6, Leading zero omitted, Abs format (unit mm)*
G04 Created by KiCad (PCBNEW (5.0.2)-1) date 01/03/2019 20:36:07*
%MOMM*%
%LPD*%
G01*
G04 APERTURE LIST*
G04 #@! TA.AperFunction,ComponentPad*
%ADD10R,4.000000X2.200000*%
G04 #@! TD*
G04 #@! TA.AperFunction,ComponentPad*
%ADD11O,2.200000X4.000000*%
G04 #@! TD*
G04 #@! TA.AperFunction,ComponentPad*
%ADD12O,4.000000X2.200000*%
G04 #@! TD*
G04 #@! TA.AperFunction,ComponentPad*
%ADD13C,2.200000*%
G04 #@! TD*
G04 #@! TA.AperFunction,Conductor*
%ADD14C,2.000000*%
G04 #@! TD*
G04 #@! TA.AperFunction,NonConductor*
%ADD15C,0.254000*%
G04 #@! TD*
G04 APERTURE END LIST*
D10*
G04 #@! TO.P,J1,T*
G04 #@! TO.N,Net-(J1-PadT)*
X126893001Y-72893001D03*
D11*
G04 #@! TO.P,J1,TN*
X134193001Y-72393001D03*
D12*
G04 #@! TO.P,J1,RN*
G04 #@! TO.N,Net-(J1-PadR)*
X129793001Y-65793001D03*
G04 #@! TO.P,J1,R*
X130993001Y-63093001D03*
D11*
G04 #@! TO.P,J1,S*
G04 #@! TO.N,Net-(J1-PadS)*
X122993001Y-68293001D03*
G04 #@! TD*
D13*
G04 #@! TO.P,SW1,1*
G04 #@! TO.N,Net-(J1-PadR)*
X140970000Y-65786000D03*
G04 #@! TO.P,SW1,2*
G04 #@! TO.N,Net-(J1-PadT)*
X143510000Y-72136000D03*
G04 #@! TD*
D14*
G04 #@! TO.N,Net-(J1-PadT)*
X143510000Y-72136000D02*
X134450002Y-72136000D01*
X134450002Y-72136000D02*
X133693001Y-72893001D01*
X133693001Y-72893001D02*
X126893001Y-72893001D01*
G04 #@! TO.N,Net-(J1-PadR)*
X140970000Y-65786000D02*
X129800002Y-65786000D01*
X129800002Y-65786000D02*
X130993001Y-64593001D01*
X130993001Y-64593001D02*
X130993001Y-63093001D01*
G04 #@! TD*
D15*
G36*
X162916000Y-86970000D02*
X121818000Y-86970000D01*
X121818000Y-81842346D01*
X125507974Y-81842346D01*
X125515000Y-82268390D01*
X125515000Y-82694569D01*
X125522320Y-82712240D01*
X125522635Y-82731363D01*
X125834640Y-83484610D01*
X125844347Y-83489682D01*
X125855259Y-83516026D01*
X126483974Y-84144741D01*
X126510318Y-84155653D01*
X126515390Y-84165360D01*
X126911708Y-84321914D01*
X127305431Y-84485000D01*
X127324560Y-84485000D01*
X127342346Y-84492026D01*
X127768390Y-84485000D01*
X128194569Y-84485000D01*
X128212240Y-84477680D01*
X128231363Y-84477365D01*
X128984610Y-84165360D01*
X128989682Y-84155653D01*
X129016026Y-84144741D01*
X129644741Y-83516026D01*
X129655653Y-83489682D01*
X129665360Y-83484610D01*
X129821914Y-83088292D01*
X129985000Y-82694569D01*
X129985000Y-82675440D01*
X129992026Y-82657654D01*
X129985000Y-82231610D01*
X129985000Y-81805431D01*
X129977680Y-81787760D01*
X129977365Y-81768637D01*
X129665360Y-81015390D01*
X129655653Y-81010318D01*
X129644741Y-80983974D01*
X129016026Y-80355259D01*
X128989682Y-80344347D01*
X128984610Y-80334640D01*
X128588292Y-80178086D01*
X128194569Y-80015000D01*
X128175440Y-80015000D01*
X128157654Y-80007974D01*
X127731610Y-80015000D01*
X127305431Y-80015000D01*
X127287760Y-80022320D01*
X127268637Y-80022635D01*
X126515390Y-80334640D01*
X126510318Y-80344347D01*
X126483974Y-80355259D01*
X125855259Y-80983974D01*
X125844347Y-81010318D01*
X125834640Y-81015390D01*
X125678086Y-81411708D01*
X125515000Y-81805431D01*
X125515000Y-81824560D01*
X125507974Y-81842346D01*
X121818000Y-81842346D01*
X121818000Y-77089000D01*
X139709974Y-77089000D01*
X139725400Y-77166552D01*
X139725401Y-80391000D01*
X139725400Y-80391000D01*
X139725400Y-83361448D01*
X139709974Y-83439000D01*
X139725400Y-83516552D01*
X139725400Y-83566000D01*
X139746529Y-83622778D01*
X139771085Y-83746228D01*
X139819353Y-83818467D01*
X139833938Y-83857658D01*
X139855377Y-83880719D01*
X139866221Y-83905973D01*
X139896848Y-83934446D01*
X139945116Y-84006684D01*
X140017354Y-84054952D01*
X140045827Y-84085579D01*
X140071081Y-84096423D01*
X140094142Y-84117862D01*
X140133333Y-84132447D01*
X140205572Y-84180715D01*
X140329022Y-84205270D01*
X140385800Y-84226400D01*
X140435248Y-84226400D01*
X140512800Y-84241826D01*
X140590352Y-84226400D01*
X143128731Y-84226400D01*
X143113574Y-84302600D01*
X143129000Y-84380152D01*
X143129000Y-84429600D01*
X143150129Y-84486378D01*
X143174685Y-84609828D01*
X143222953Y-84682067D01*
X143237538Y-84721258D01*
X143258977Y-84744319D01*
X143269821Y-84769573D01*
X143300448Y-84798046D01*
X143348716Y-84870284D01*
X143420954Y-84918552D01*
X143449427Y-84949179D01*
X143474681Y-84960023D01*
X143497742Y-84981462D01*
X143536933Y-84996047D01*
X143609172Y-85044315D01*
X143732622Y-85068870D01*
X143789400Y-85090000D01*
X143838848Y-85090000D01*
X143916400Y-85105426D01*
X143993952Y-85090000D01*
X146328048Y-85090000D01*
X146405600Y-85105426D01*
X146483152Y-85090000D01*
X146532600Y-85090000D01*
X146589378Y-85068870D01*
X146712828Y-85044315D01*
X146785067Y-84996047D01*
X146824258Y-84981462D01*
X146847319Y-84960023D01*
X146872573Y-84949179D01*
X146901046Y-84918552D01*
X146973284Y-84870284D01*
X147021552Y-84798046D01*
X147052179Y-84769573D01*
X147063023Y-84744319D01*
X147084462Y-84721258D01*
X147099047Y-84682067D01*
X147147315Y-84609828D01*
X147171871Y-84486378D01*
X147193000Y-84429600D01*
X147193000Y-84380152D01*
X147208426Y-84302600D01*
X147193269Y-84226400D01*
X152424048Y-84226400D01*
X152501600Y-84241826D01*
X152579152Y-84226400D01*
X152628600Y-84226400D01*
X152685378Y-84205270D01*
X152808828Y-84180715D01*
X152881067Y-84132447D01*
X152920258Y-84117862D01*
X152943319Y-84096423D01*
X152968573Y-84085579D01*
X152997046Y-84054952D01*
X153069284Y-84006684D01*
X153117552Y-83934446D01*
X153148179Y-83905973D01*
X153159023Y-83880719D01*
X153180462Y-83857658D01*
X153195047Y-83818467D01*
X153243315Y-83746228D01*
X153267871Y-83622778D01*
X153289000Y-83566000D01*
X153289000Y-83516552D01*
X153304426Y-83439000D01*
X153289000Y-83361448D01*
X153289000Y-82423000D01*
X153744848Y-82423000D01*
X153822400Y-82438426D01*
X154129628Y-82377315D01*
X154240784Y-82303043D01*
X154289373Y-82282179D01*
X154317846Y-82251552D01*
X154390084Y-82203284D01*
X154460012Y-82098629D01*
X154501262Y-82054258D01*
X154515847Y-82015067D01*
X154564115Y-81942828D01*
X154588670Y-81819378D01*
X154609800Y-81762600D01*
X154609800Y-78765400D01*
X154588670Y-78708622D01*
X154564115Y-78585172D01*
X154515847Y-78512933D01*
X154501262Y-78473742D01*
X154460012Y-78429371D01*
X154390084Y-78324716D01*
X154317846Y-78276448D01*
X154289373Y-78245821D01*
X154240783Y-78224957D01*
X154129627Y-78150685D01*
X153822400Y-78089574D01*
X153744848Y-78105000D01*
X153289000Y-78105000D01*
X153289000Y-77166552D01*
X153304426Y-77089000D01*
X153289000Y-77011448D01*
X153289000Y-76962000D01*
X153267871Y-76905222D01*
X153243315Y-76781772D01*
X153195047Y-76709533D01*
X153180462Y-76670342D01*
X153159023Y-76647281D01*
X153148179Y-76622027D01*
X153117552Y-76593554D01*
X153069284Y-76521316D01*
X152997046Y-76473048D01*
X152968573Y-76442421D01*
X152943319Y-76431577D01*
X152920258Y-76410138D01*
X152881067Y-76395553D01*
X152808828Y-76347285D01*
X152685378Y-76322730D01*
X152628600Y-76301600D01*
X152579152Y-76301600D01*
X152501600Y-76286174D01*
X152424048Y-76301600D01*
X140590352Y-76301600D01*
X140512800Y-76286174D01*
X140435248Y-76301600D01*
X140385800Y-76301600D01*
X140329022Y-76322730D01*
X140205572Y-76347285D01*
X140133333Y-76395553D01*
X140094142Y-76410138D01*
X140071081Y-76431577D01*
X140045827Y-76442421D01*
X140017354Y-76473048D01*
X139945116Y-76521316D01*
X139896848Y-76593554D01*
X139866221Y-76622027D01*
X139855377Y-76647281D01*
X139833938Y-76670342D01*
X139819353Y-76709533D01*
X139771085Y-76781772D01*
X139746529Y-76905222D01*
X139725400Y-76962000D01*
X139725400Y-77011448D01*
X139709974Y-77089000D01*
X121818000Y-77089000D01*
X121818000Y-71793001D01*
X124245561Y-71793001D01*
X124245561Y-73993001D01*
X124294844Y-74240766D01*
X124435192Y-74450810D01*
X124645236Y-74591158D01*
X124893001Y-74640441D01*
X128893001Y-74640441D01*
X129140766Y-74591158D01*
X129235286Y-74528001D01*
X132931536Y-74528001D01*
X132942137Y-74543866D01*
X133516039Y-74927335D01*
X134193001Y-75061991D01*
X134869964Y-74927335D01*
X135443866Y-74543866D01*
X135827335Y-73969964D01*
X135866911Y-73771000D01*
X142923465Y-73771000D01*
X143164887Y-73871000D01*
X143855113Y-73871000D01*
X144492799Y-73606862D01*
X144565000Y-73534661D01*
X144565000Y-73701385D01*
X144578149Y-73733130D01*
X144579685Y-73767458D01*
X144754741Y-74190080D01*
X144769358Y-74194749D01*
X144791078Y-74247185D01*
X145208815Y-74664922D01*
X145261251Y-74686642D01*
X145265920Y-74701259D01*
X145512392Y-74790668D01*
X145754615Y-74891000D01*
X145788976Y-74891000D01*
X145821279Y-74902718D01*
X146083208Y-74891000D01*
X146345385Y-74891000D01*
X146377130Y-74877851D01*
X146411458Y-74876315D01*
X146834080Y-74701259D01*
X146838749Y-74686642D01*
X146891185Y-74664922D01*
X147308922Y-74247185D01*
X147330642Y-74194749D01*
X147345259Y-74190080D01*
X147434668Y-73943608D01*
X147535000Y-73701385D01*
X147535000Y-73667024D01*
X147546718Y-73634721D01*
X147535000Y-73372792D01*
X147535000Y-73110615D01*
X147521851Y-73078870D01*
X147520315Y-73044542D01*
X147345259Y-72621920D01*
X147330642Y-72617251D01*
X147308922Y-72564815D01*
X146891185Y-72147078D01*
X146838749Y-72125358D01*
X146834080Y-72110741D01*
X146587608Y-72021332D01*
X146345385Y-71921000D01*
X146311024Y-71921000D01*
X146278721Y-71909282D01*
X146016792Y-71921000D01*
X145754615Y-71921000D01*
X145722870Y-71934149D01*
X145688542Y-71935685D01*
X145265920Y-72110741D01*
X145261251Y-72125358D01*
X145245000Y-72132090D01*
X145245000Y-71790887D01*
X144980862Y-71153201D01*
X144492799Y-70665138D01*
X143855113Y-70401000D01*
X143164887Y-70401000D01*
X142923465Y-70501000D01*
X135616833Y-70501000D01*
X135443866Y-70242136D01*
X134869963Y-69858667D01*
X134193001Y-69724011D01*
X133516038Y-69858667D01*
X132942136Y-70242136D01*
X132558667Y-70816039D01*
X132470755Y-71258001D01*
X129235286Y-71258001D01*
X129140766Y-71194844D01*
X128893001Y-71145561D01*
X124893001Y-71145561D01*
X124645236Y-71194844D01*
X124435192Y-71335192D01*
X124294844Y-71545236D01*
X124245561Y-71793001D01*
X121818000Y-71793001D01*
X121818000Y-70494556D01*
X122316039Y-70827335D01*
X122993001Y-70961991D01*
X123669964Y-70827335D01*
X124243866Y-70443866D01*
X124627335Y-69869964D01*
X124728001Y-69363881D01*
X124728001Y-67823012D01*
X143410881Y-67823012D01*
X143415000Y-68336655D01*
X143415000Y-68850134D01*
X143419199Y-68860271D01*
X143419287Y-68871247D01*
X143804257Y-69800647D01*
X143810175Y-69804171D01*
X143816155Y-69818608D01*
X144557392Y-70559845D01*
X144571829Y-70565825D01*
X144575353Y-70571743D01*
X145051483Y-70764504D01*
X145525866Y-70961000D01*
X145536838Y-70961000D01*
X145547012Y-70965119D01*
X146060655Y-70961000D01*
X146574134Y-70961000D01*
X146584271Y-70956801D01*
X146595247Y-70956713D01*
X147524647Y-70571743D01*
X147528171Y-70565825D01*
X147542608Y-70559845D01*
X148283845Y-69818608D01*
X148289825Y-69804171D01*
X148295743Y-69800647D01*
X148488504Y-69324517D01*
X148685000Y-68850134D01*
X148685000Y-68839162D01*
X148689119Y-68828988D01*
X148685000Y-68315345D01*
X148685000Y-67842346D01*
X157507974Y-67842346D01*
X157515000Y-68268390D01*
X157515000Y-68694569D01*
X157522320Y-68712240D01*
X157522635Y-68731363D01*
X157834640Y-69484610D01*
X157844347Y-69489682D01*
X157855259Y-69516026D01*
X158483974Y-70144741D01*
X158510318Y-70155653D01*
X158515390Y-70165360D01*
X158911708Y-70321914D01*
X159305431Y-70485000D01*
X159324560Y-70485000D01*
X159342346Y-70492026D01*
X159768390Y-70485000D01*
X160194569Y-70485000D01*
X160212240Y-70477680D01*
X160231363Y-70477365D01*
X160984610Y-70165360D01*
X160989682Y-70155653D01*
X161016026Y-70144741D01*
X161644741Y-69516026D01*
X161655653Y-69489682D01*
X161665360Y-69484610D01*
X161821914Y-69088292D01*
X161985000Y-68694569D01*
X161985000Y-68675440D01*
X161992026Y-68657654D01*
X161985000Y-68231610D01*
X161985000Y-67805431D01*
X161977680Y-67787760D01*
X161977365Y-67768637D01*
X161665360Y-67015390D01*
X161655653Y-67010318D01*
X161644741Y-66983974D01*
X161016026Y-66355259D01*
X160989682Y-66344347D01*
X160984610Y-66334640D01*
X160588292Y-66178086D01*
X160194569Y-66015000D01*
X160175440Y-66015000D01*
X160157654Y-66007974D01*
X159731610Y-66015000D01*
X159305431Y-66015000D01*
X159287760Y-66022320D01*
X159268637Y-66022635D01*
X158515390Y-66334640D01*
X158510318Y-66344347D01*
X158483974Y-66355259D01*
X157855259Y-66983974D01*
X157844347Y-67010318D01*
X157834640Y-67015390D01*
X157678086Y-67411708D01*
X157515000Y-67805431D01*
X157515000Y-67824560D01*
X157507974Y-67842346D01*
X148685000Y-67842346D01*
X148685000Y-67801866D01*
X148680801Y-67791729D01*
X148680713Y-67780753D01*
X148295743Y-66851353D01*
X148289825Y-66847829D01*
X148283845Y-66833392D01*
X147542608Y-66092155D01*
X147528171Y-66086175D01*
X147524647Y-66080257D01*
X147048517Y-65887496D01*
X146574134Y-65691000D01*
X146563162Y-65691000D01*
X146552988Y-65686881D01*
X146039345Y-65691000D01*
X145525866Y-65691000D01*
X145515729Y-65695199D01*
X145504753Y-65695287D01*
X144575353Y-66080257D01*
X144571829Y-66086175D01*
X144557392Y-66092155D01*
X143816155Y-66833392D01*
X143810175Y-66847829D01*
X143804257Y-66851353D01*
X143611496Y-67327483D01*
X143415000Y-67801866D01*
X143415000Y-67812838D01*
X143410881Y-67823012D01*
X124728001Y-67823012D01*
X124728001Y-67222121D01*
X124627335Y-66716038D01*
X124243866Y-66142136D01*
X123721348Y-65793001D01*
X127124011Y-65793001D01*
X127258667Y-66469964D01*
X127642136Y-67043866D01*
X128216038Y-67427335D01*
X128722121Y-67528001D01*
X130863881Y-67528001D01*
X131369964Y-67427335D01*
X131379445Y-67421000D01*
X140383465Y-67421000D01*
X140624887Y-67521000D01*
X141315113Y-67521000D01*
X141952799Y-67256862D01*
X142440862Y-66768799D01*
X142705000Y-66131113D01*
X142705000Y-65440887D01*
X142440862Y-64803201D01*
X141952799Y-64315138D01*
X141315113Y-64051000D01*
X140624887Y-64051000D01*
X140383465Y-64151000D01*
X133272735Y-64151000D01*
X133527335Y-63769964D01*
X133661991Y-63093001D01*
X133646929Y-63017279D01*
X144553282Y-63017279D01*
X144565000Y-63279208D01*
X144565000Y-63541385D01*
X144578149Y-63573130D01*
X144579685Y-63607458D01*
X144754741Y-64030080D01*
X144769358Y-64034749D01*
X144791078Y-64087185D01*
X145208815Y-64504922D01*
X145261251Y-64526642D01*
X145265920Y-64541259D01*
X145512392Y-64630668D01*
X145754615Y-64731000D01*
X145788976Y-64731000D01*
X145821279Y-64742718D01*
X146083208Y-64731000D01*
X146345385Y-64731000D01*
X146377130Y-64717851D01*
X146411458Y-64716315D01*
X146834080Y-64541259D01*
X146838749Y-64526642D01*
X146891185Y-64504922D01*
X147308922Y-64087185D01*
X147330642Y-64034749D01*
X147345259Y-64030080D01*
X147434668Y-63783608D01*
X147535000Y-63541385D01*
X147535000Y-63507024D01*
X147546718Y-63474721D01*
X147535000Y-63212792D01*
X147535000Y-62950615D01*
X147521851Y-62918870D01*
X147520315Y-62884542D01*
X147345259Y-62461920D01*
X147330642Y-62457251D01*
X147308922Y-62404815D01*
X146891185Y-61987078D01*
X146838749Y-61965358D01*
X146834080Y-61950741D01*
X146587608Y-61861332D01*
X146345385Y-61761000D01*
X146311024Y-61761000D01*
X146278721Y-61749282D01*
X146016792Y-61761000D01*
X145754615Y-61761000D01*
X145722870Y-61774149D01*
X145688542Y-61775685D01*
X145265920Y-61950741D01*
X145261251Y-61965358D01*
X145208815Y-61987078D01*
X144791078Y-62404815D01*
X144769358Y-62457251D01*
X144754741Y-62461920D01*
X144665332Y-62708392D01*
X144565000Y-62950615D01*
X144565000Y-62984976D01*
X144553282Y-63017279D01*
X133646929Y-63017279D01*
X133527335Y-62416038D01*
X133143866Y-61842136D01*
X132569964Y-61458667D01*
X132063881Y-61358001D01*
X129922121Y-61358001D01*
X129416038Y-61458667D01*
X128842136Y-61842136D01*
X128458667Y-62416038D01*
X128324011Y-63093001D01*
X128458667Y-63769964D01*
X128659456Y-64070466D01*
X128216038Y-64158667D01*
X127642136Y-64542136D01*
X127258667Y-65116038D01*
X127124011Y-65793001D01*
X123721348Y-65793001D01*
X123669963Y-65758667D01*
X122993001Y-65624011D01*
X122316038Y-65758667D01*
X121818000Y-66091445D01*
X121818000Y-53842346D01*
X125507974Y-53842346D01*
X125515000Y-54268390D01*
X125515000Y-54694569D01*
X125522320Y-54712240D01*
X125522635Y-54731363D01*
X125834640Y-55484610D01*
X125844347Y-55489682D01*
X125855259Y-55516026D01*
X126483974Y-56144741D01*
X126510318Y-56155653D01*
X126515390Y-56165360D01*
X126911708Y-56321914D01*
X127305431Y-56485000D01*
X127324560Y-56485000D01*
X127342346Y-56492026D01*
X127768390Y-56485000D01*
X128194569Y-56485000D01*
X128212240Y-56477680D01*
X128231363Y-56477365D01*
X128984610Y-56165360D01*
X128989682Y-56155653D01*
X129016026Y-56144741D01*
X129644741Y-55516026D01*
X129655653Y-55489682D01*
X129665360Y-55484610D01*
X129821914Y-55088292D01*
X129985000Y-54694569D01*
X129985000Y-54675440D01*
X129992026Y-54657654D01*
X129985000Y-54231610D01*
X129985000Y-53805431D01*
X129977680Y-53787760D01*
X129977365Y-53768637D01*
X129747213Y-53213000D01*
X139709974Y-53213000D01*
X139725400Y-53290552D01*
X139725401Y-56515000D01*
X139725400Y-56515000D01*
X139725400Y-59485448D01*
X139709974Y-59563000D01*
X139725400Y-59640552D01*
X139725400Y-59690000D01*
X139746529Y-59746778D01*
X139771085Y-59870228D01*
X139819353Y-59942467D01*
X139833938Y-59981658D01*
X139855377Y-60004719D01*
X139866221Y-60029973D01*
X139896848Y-60058446D01*
X139945116Y-60130684D01*
X140017354Y-60178952D01*
X140045827Y-60209579D01*
X140071081Y-60220423D01*
X140094142Y-60241862D01*
X140133333Y-60256447D01*
X140205572Y-60304715D01*
X140329022Y-60329270D01*
X140385800Y-60350400D01*
X140435248Y-60350400D01*
X140512800Y-60365826D01*
X140590352Y-60350400D01*
X152424048Y-60350400D01*
X152501600Y-60365826D01*
X152579152Y-60350400D01*
X152628600Y-60350400D01*
X152685378Y-60329270D01*
X152808828Y-60304715D01*
X152881067Y-60256447D01*
X152920258Y-60241862D01*
X152943319Y-60220423D01*
X152968573Y-60209579D01*
X152997046Y-60178952D01*
X153069284Y-60130684D01*
X153117552Y-60058446D01*
X153148179Y-60029973D01*
X153159023Y-60004719D01*
X153180462Y-59981658D01*
X153195047Y-59942467D01*
X153243315Y-59870228D01*
X153267871Y-59746778D01*
X153289000Y-59690000D01*
X153289000Y-59640552D01*
X153304426Y-59563000D01*
X153289000Y-59485448D01*
X153289000Y-58547000D01*
X153744848Y-58547000D01*
X153822400Y-58562426D01*
X154129628Y-58501315D01*
X154240784Y-58427043D01*
X154289373Y-58406179D01*
X154317846Y-58375552D01*
X154390084Y-58327284D01*
X154460012Y-58222629D01*
X154501262Y-58178258D01*
X154515847Y-58139067D01*
X154564115Y-58066828D01*
X154588670Y-57943378D01*
X154609800Y-57886600D01*
X154609800Y-54889400D01*
X154588670Y-54832622D01*
X154564115Y-54709172D01*
X154515847Y-54636933D01*
X154501262Y-54597742D01*
X154460012Y-54553371D01*
X154390084Y-54448716D01*
X154317846Y-54400448D01*
X154289373Y-54369821D01*
X154240783Y-54348957D01*
X154129627Y-54274685D01*
X153822400Y-54213574D01*
X153744848Y-54229000D01*
X153289000Y-54229000D01*
X153289000Y-53290552D01*
X153304426Y-53213000D01*
X153289000Y-53135448D01*
X153289000Y-53086000D01*
X153267871Y-53029222D01*
X153243315Y-52905772D01*
X153195047Y-52833533D01*
X153180462Y-52794342D01*
X153159023Y-52771281D01*
X153148179Y-52746027D01*
X153117552Y-52717554D01*
X153069284Y-52645316D01*
X152997046Y-52597048D01*
X152968573Y-52566421D01*
X152943319Y-52555577D01*
X152920258Y-52534138D01*
X152881067Y-52519553D01*
X152808828Y-52471285D01*
X152685378Y-52446730D01*
X152628600Y-52425600D01*
X152579152Y-52425600D01*
X152501600Y-52410174D01*
X152424048Y-52425600D01*
X147193269Y-52425600D01*
X147208426Y-52349400D01*
X147193000Y-52271848D01*
X147193000Y-52222400D01*
X147171871Y-52165622D01*
X147147315Y-52042172D01*
X147099047Y-51969933D01*
X147084462Y-51930742D01*
X147063023Y-51907681D01*
X147052179Y-51882427D01*
X147021552Y-51853954D01*
X146973284Y-51781716D01*
X146901046Y-51733448D01*
X146872573Y-51702821D01*
X146847319Y-51691977D01*
X146824258Y-51670538D01*
X146785067Y-51655953D01*
X146712828Y-51607685D01*
X146589378Y-51583130D01*
X146532600Y-51562000D01*
X146483152Y-51562000D01*
X146405600Y-51546574D01*
X146328048Y-51562000D01*
X143993952Y-51562000D01*
X143916400Y-51546574D01*
X143838848Y-51562000D01*
X143789400Y-51562000D01*
X143732622Y-51583130D01*
X143609172Y-51607685D01*
X143536933Y-51655953D01*
X143497742Y-51670538D01*
X143474681Y-51691977D01*
X143449427Y-51702821D01*
X143420954Y-51733448D01*
X143348716Y-51781716D01*
X143300448Y-51853954D01*
X143269821Y-51882427D01*
X143258977Y-51907681D01*
X143237538Y-51930742D01*
X143222953Y-51969933D01*
X143174685Y-52042172D01*
X143150129Y-52165622D01*
X143129000Y-52222400D01*
X143129000Y-52271848D01*
X143113574Y-52349400D01*
X143128731Y-52425600D01*
X140590352Y-52425600D01*
X140512800Y-52410174D01*
X140435248Y-52425600D01*
X140385800Y-52425600D01*
X140329022Y-52446730D01*
X140205572Y-52471285D01*
X140133333Y-52519553D01*
X140094142Y-52534138D01*
X140071081Y-52555577D01*
X140045827Y-52566421D01*
X140017354Y-52597048D01*
X139945116Y-52645316D01*
X139896848Y-52717554D01*
X139866221Y-52746027D01*
X139855377Y-52771281D01*
X139833938Y-52794342D01*
X139819353Y-52833533D01*
X139771085Y-52905772D01*
X139746529Y-53029222D01*
X139725400Y-53086000D01*
X139725400Y-53135448D01*
X139709974Y-53213000D01*
X129747213Y-53213000D01*
X129665360Y-53015390D01*
X129655653Y-53010318D01*
X129644741Y-52983974D01*
X129016026Y-52355259D01*
X128989682Y-52344347D01*
X128984610Y-52334640D01*
X128588292Y-52178086D01*
X128194569Y-52015000D01*
X128175440Y-52015000D01*
X128157654Y-52007974D01*
X127731610Y-52015000D01*
X127305431Y-52015000D01*
X127287760Y-52022320D01*
X127268637Y-52022635D01*
X126515390Y-52334640D01*
X126510318Y-52344347D01*
X126483974Y-52355259D01*
X125855259Y-52983974D01*
X125844347Y-53010318D01*
X125834640Y-53015390D01*
X125678086Y-53411708D01*
X125515000Y-53805431D01*
X125515000Y-53824560D01*
X125507974Y-53842346D01*
X121818000Y-53842346D01*
X121818000Y-49682000D01*
X162916001Y-49682000D01*
X162916000Y-86970000D01*
X162916000Y-86970000D01*
G37*
X162916000Y-86970000D02*
X121818000Y-86970000D01*
X121818000Y-81842346D01*
X125507974Y-81842346D01*
X125515000Y-82268390D01*
X125515000Y-82694569D01*
X125522320Y-82712240D01*
X125522635Y-82731363D01*
X125834640Y-83484610D01*
X125844347Y-83489682D01*
X125855259Y-83516026D01*
X126483974Y-84144741D01*
X126510318Y-84155653D01*
X126515390Y-84165360D01*
X126911708Y-84321914D01*
X127305431Y-84485000D01*
X127324560Y-84485000D01*
X127342346Y-84492026D01*
X127768390Y-84485000D01*
X128194569Y-84485000D01*
X128212240Y-84477680D01*
X128231363Y-84477365D01*
X128984610Y-84165360D01*
X128989682Y-84155653D01*
X129016026Y-84144741D01*
X129644741Y-83516026D01*
X129655653Y-83489682D01*
X129665360Y-83484610D01*
X129821914Y-83088292D01*
X129985000Y-82694569D01*
X129985000Y-82675440D01*
X129992026Y-82657654D01*
X129985000Y-82231610D01*
X129985000Y-81805431D01*
X129977680Y-81787760D01*
X129977365Y-81768637D01*
X129665360Y-81015390D01*
X129655653Y-81010318D01*
X129644741Y-80983974D01*
X129016026Y-80355259D01*
X128989682Y-80344347D01*
X128984610Y-80334640D01*
X128588292Y-80178086D01*
X128194569Y-80015000D01*
X128175440Y-80015000D01*
X128157654Y-80007974D01*
X127731610Y-80015000D01*
X127305431Y-80015000D01*
X127287760Y-80022320D01*
X127268637Y-80022635D01*
X126515390Y-80334640D01*
X126510318Y-80344347D01*
X126483974Y-80355259D01*
X125855259Y-80983974D01*
X125844347Y-81010318D01*
X125834640Y-81015390D01*
X125678086Y-81411708D01*
X125515000Y-81805431D01*
X125515000Y-81824560D01*
X125507974Y-81842346D01*
X121818000Y-81842346D01*
X121818000Y-77089000D01*
X139709974Y-77089000D01*
X139725400Y-77166552D01*
X139725401Y-80391000D01*
X139725400Y-80391000D01*
X139725400Y-83361448D01*
X139709974Y-83439000D01*
X139725400Y-83516552D01*
X139725400Y-83566000D01*
X139746529Y-83622778D01*
X139771085Y-83746228D01*
X139819353Y-83818467D01*
X139833938Y-83857658D01*
X139855377Y-83880719D01*
X139866221Y-83905973D01*
X139896848Y-83934446D01*
X139945116Y-84006684D01*
X140017354Y-84054952D01*
X140045827Y-84085579D01*
X140071081Y-84096423D01*
X140094142Y-84117862D01*
X140133333Y-84132447D01*
X140205572Y-84180715D01*
X140329022Y-84205270D01*
X140385800Y-84226400D01*
X140435248Y-84226400D01*
X140512800Y-84241826D01*
X140590352Y-84226400D01*
X143128731Y-84226400D01*
X143113574Y-84302600D01*
X143129000Y-84380152D01*
X143129000Y-84429600D01*
X143150129Y-84486378D01*
X143174685Y-84609828D01*
X143222953Y-84682067D01*
X143237538Y-84721258D01*
X143258977Y-84744319D01*
X143269821Y-84769573D01*
X143300448Y-84798046D01*
X143348716Y-84870284D01*
X143420954Y-84918552D01*
X143449427Y-84949179D01*
X143474681Y-84960023D01*
X143497742Y-84981462D01*
X143536933Y-84996047D01*
X143609172Y-85044315D01*
X143732622Y-85068870D01*
X143789400Y-85090000D01*
X143838848Y-85090000D01*
X143916400Y-85105426D01*
X143993952Y-85090000D01*
X146328048Y-85090000D01*
X146405600Y-85105426D01*
X146483152Y-85090000D01*
X146532600Y-85090000D01*
X146589378Y-85068870D01*
X146712828Y-85044315D01*
X146785067Y-84996047D01*
X146824258Y-84981462D01*
X146847319Y-84960023D01*
X146872573Y-84949179D01*
X146901046Y-84918552D01*
X146973284Y-84870284D01*
X147021552Y-84798046D01*
X147052179Y-84769573D01*
X147063023Y-84744319D01*
X147084462Y-84721258D01*
X147099047Y-84682067D01*
X147147315Y-84609828D01*
X147171871Y-84486378D01*
X147193000Y-84429600D01*
X147193000Y-84380152D01*
X147208426Y-84302600D01*
X147193269Y-84226400D01*
X152424048Y-84226400D01*
X152501600Y-84241826D01*
X152579152Y-84226400D01*
X152628600Y-84226400D01*
X152685378Y-84205270D01*
X152808828Y-84180715D01*
X152881067Y-84132447D01*
X152920258Y-84117862D01*
X152943319Y-84096423D01*
X152968573Y-84085579D01*
X152997046Y-84054952D01*
X153069284Y-84006684D01*
X153117552Y-83934446D01*
X153148179Y-83905973D01*
X153159023Y-83880719D01*
X153180462Y-83857658D01*
X153195047Y-83818467D01*
X153243315Y-83746228D01*
X153267871Y-83622778D01*
X153289000Y-83566000D01*
X153289000Y-83516552D01*
X153304426Y-83439000D01*
X153289000Y-83361448D01*
X153289000Y-82423000D01*
X153744848Y-82423000D01*
X153822400Y-82438426D01*
X154129628Y-82377315D01*
X154240784Y-82303043D01*
X154289373Y-82282179D01*
X154317846Y-82251552D01*
X154390084Y-82203284D01*
X154460012Y-82098629D01*
X154501262Y-82054258D01*
X154515847Y-82015067D01*
X154564115Y-81942828D01*
X154588670Y-81819378D01*
X154609800Y-81762600D01*
X154609800Y-78765400D01*
X154588670Y-78708622D01*
X154564115Y-78585172D01*
X154515847Y-78512933D01*
X154501262Y-78473742D01*
X154460012Y-78429371D01*
X154390084Y-78324716D01*
X154317846Y-78276448D01*
X154289373Y-78245821D01*
X154240783Y-78224957D01*
X154129627Y-78150685D01*
X153822400Y-78089574D01*
X153744848Y-78105000D01*
X153289000Y-78105000D01*
X153289000Y-77166552D01*
X153304426Y-77089000D01*
X153289000Y-77011448D01*
X153289000Y-76962000D01*
X153267871Y-76905222D01*
X153243315Y-76781772D01*
X153195047Y-76709533D01*
X153180462Y-76670342D01*
X153159023Y-76647281D01*
X153148179Y-76622027D01*
X153117552Y-76593554D01*
X153069284Y-76521316D01*
X152997046Y-76473048D01*
X152968573Y-76442421D01*
X152943319Y-76431577D01*
X152920258Y-76410138D01*
X152881067Y-76395553D01*
X152808828Y-76347285D01*
X152685378Y-76322730D01*
X152628600Y-76301600D01*
X152579152Y-76301600D01*
X152501600Y-76286174D01*
X152424048Y-76301600D01*
X140590352Y-76301600D01*
X140512800Y-76286174D01*
X140435248Y-76301600D01*
X140385800Y-76301600D01*
X140329022Y-76322730D01*
X140205572Y-76347285D01*
X140133333Y-76395553D01*
X140094142Y-76410138D01*
X140071081Y-76431577D01*
X140045827Y-76442421D01*
X140017354Y-76473048D01*
X139945116Y-76521316D01*
X139896848Y-76593554D01*
X139866221Y-76622027D01*
X139855377Y-76647281D01*
X139833938Y-76670342D01*
X139819353Y-76709533D01*
X139771085Y-76781772D01*
X139746529Y-76905222D01*
X139725400Y-76962000D01*
X139725400Y-77011448D01*
X139709974Y-77089000D01*
X121818000Y-77089000D01*
X121818000Y-71793001D01*
X124245561Y-71793001D01*
X124245561Y-73993001D01*
X124294844Y-74240766D01*
X124435192Y-74450810D01*
X124645236Y-74591158D01*
X124893001Y-74640441D01*
X128893001Y-74640441D01*
X129140766Y-74591158D01*
X129235286Y-74528001D01*
X132931536Y-74528001D01*
X132942137Y-74543866D01*
X133516039Y-74927335D01*
X134193001Y-75061991D01*
X134869964Y-74927335D01*
X135443866Y-74543866D01*
X135827335Y-73969964D01*
X135866911Y-73771000D01*
X142923465Y-73771000D01*
X143164887Y-73871000D01*
X143855113Y-73871000D01*
X144492799Y-73606862D01*
X144565000Y-73534661D01*
X144565000Y-73701385D01*
X144578149Y-73733130D01*
X144579685Y-73767458D01*
X144754741Y-74190080D01*
X144769358Y-74194749D01*
X144791078Y-74247185D01*
X145208815Y-74664922D01*
X145261251Y-74686642D01*
X145265920Y-74701259D01*
X145512392Y-74790668D01*
X145754615Y-74891000D01*
X145788976Y-74891000D01*
X145821279Y-74902718D01*
X146083208Y-74891000D01*
X146345385Y-74891000D01*
X146377130Y-74877851D01*
X146411458Y-74876315D01*
X146834080Y-74701259D01*
X146838749Y-74686642D01*
X146891185Y-74664922D01*
X147308922Y-74247185D01*
X147330642Y-74194749D01*
X147345259Y-74190080D01*
X147434668Y-73943608D01*
X147535000Y-73701385D01*
X147535000Y-73667024D01*
X147546718Y-73634721D01*
X147535000Y-73372792D01*
X147535000Y-73110615D01*
X147521851Y-73078870D01*
X147520315Y-73044542D01*
X147345259Y-72621920D01*
X147330642Y-72617251D01*
X147308922Y-72564815D01*
X146891185Y-72147078D01*
X146838749Y-72125358D01*
X146834080Y-72110741D01*
X146587608Y-72021332D01*
X146345385Y-71921000D01*
X146311024Y-71921000D01*
X146278721Y-71909282D01*
X146016792Y-71921000D01*
X145754615Y-71921000D01*
X145722870Y-71934149D01*
X145688542Y-71935685D01*
X145265920Y-72110741D01*
X145261251Y-72125358D01*
X145245000Y-72132090D01*
X145245000Y-71790887D01*
X144980862Y-71153201D01*
X144492799Y-70665138D01*
X143855113Y-70401000D01*
X143164887Y-70401000D01*
X142923465Y-70501000D01*
X135616833Y-70501000D01*
X135443866Y-70242136D01*
X134869963Y-69858667D01*
X134193001Y-69724011D01*
X133516038Y-69858667D01*
X132942136Y-70242136D01*
X132558667Y-70816039D01*
X132470755Y-71258001D01*
X129235286Y-71258001D01*
X129140766Y-71194844D01*
X128893001Y-71145561D01*
X124893001Y-71145561D01*
X124645236Y-71194844D01*
X124435192Y-71335192D01*
X124294844Y-71545236D01*
X124245561Y-71793001D01*
X121818000Y-71793001D01*
X121818000Y-70494556D01*
X122316039Y-70827335D01*
X122993001Y-70961991D01*
X123669964Y-70827335D01*
X124243866Y-70443866D01*
X124627335Y-69869964D01*
X124728001Y-69363881D01*
X124728001Y-67823012D01*
X143410881Y-67823012D01*
X143415000Y-68336655D01*
X143415000Y-68850134D01*
X143419199Y-68860271D01*
X143419287Y-68871247D01*
X143804257Y-69800647D01*
X143810175Y-69804171D01*
X143816155Y-69818608D01*
X144557392Y-70559845D01*
X144571829Y-70565825D01*
X144575353Y-70571743D01*
X145051483Y-70764504D01*
X145525866Y-70961000D01*
X145536838Y-70961000D01*
X145547012Y-70965119D01*
X146060655Y-70961000D01*
X146574134Y-70961000D01*
X146584271Y-70956801D01*
X146595247Y-70956713D01*
X147524647Y-70571743D01*
X147528171Y-70565825D01*
X147542608Y-70559845D01*
X148283845Y-69818608D01*
X148289825Y-69804171D01*
X148295743Y-69800647D01*
X148488504Y-69324517D01*
X148685000Y-68850134D01*
X148685000Y-68839162D01*
X148689119Y-68828988D01*
X148685000Y-68315345D01*
X148685000Y-67842346D01*
X157507974Y-67842346D01*
X157515000Y-68268390D01*
X157515000Y-68694569D01*
X157522320Y-68712240D01*
X157522635Y-68731363D01*
X157834640Y-69484610D01*
X157844347Y-69489682D01*
X157855259Y-69516026D01*
X158483974Y-70144741D01*
X158510318Y-70155653D01*
X158515390Y-70165360D01*
X158911708Y-70321914D01*
X159305431Y-70485000D01*
X159324560Y-70485000D01*
X159342346Y-70492026D01*
X159768390Y-70485000D01*
X160194569Y-70485000D01*
X160212240Y-70477680D01*
X160231363Y-70477365D01*
X160984610Y-70165360D01*
X160989682Y-70155653D01*
X161016026Y-70144741D01*
X161644741Y-69516026D01*
X161655653Y-69489682D01*
X161665360Y-69484610D01*
X161821914Y-69088292D01*
X161985000Y-68694569D01*
X161985000Y-68675440D01*
X161992026Y-68657654D01*
X161985000Y-68231610D01*
X161985000Y-67805431D01*
X161977680Y-67787760D01*
X161977365Y-67768637D01*
X161665360Y-67015390D01*
X161655653Y-67010318D01*
X161644741Y-66983974D01*
X161016026Y-66355259D01*
X160989682Y-66344347D01*
X160984610Y-66334640D01*
X160588292Y-66178086D01*
X160194569Y-66015000D01*
X160175440Y-66015000D01*
X160157654Y-66007974D01*
X159731610Y-66015000D01*
X159305431Y-66015000D01*
X159287760Y-66022320D01*
X159268637Y-66022635D01*
X158515390Y-66334640D01*
X158510318Y-66344347D01*
X158483974Y-66355259D01*
X157855259Y-66983974D01*
X157844347Y-67010318D01*
X157834640Y-67015390D01*
X157678086Y-67411708D01*
X157515000Y-67805431D01*
X157515000Y-67824560D01*
X157507974Y-67842346D01*
X148685000Y-67842346D01*
X148685000Y-67801866D01*
X148680801Y-67791729D01*
X148680713Y-67780753D01*
X148295743Y-66851353D01*
X148289825Y-66847829D01*
X148283845Y-66833392D01*
X147542608Y-66092155D01*
X147528171Y-66086175D01*
X147524647Y-66080257D01*
X147048517Y-65887496D01*
X146574134Y-65691000D01*
X146563162Y-65691000D01*
X146552988Y-65686881D01*
X146039345Y-65691000D01*
X145525866Y-65691000D01*
X145515729Y-65695199D01*
X145504753Y-65695287D01*
X144575353Y-66080257D01*
X144571829Y-66086175D01*
X144557392Y-66092155D01*
X143816155Y-66833392D01*
X143810175Y-66847829D01*
X143804257Y-66851353D01*
X143611496Y-67327483D01*
X143415000Y-67801866D01*
X143415000Y-67812838D01*
X143410881Y-67823012D01*
X124728001Y-67823012D01*
X124728001Y-67222121D01*
X124627335Y-66716038D01*
X124243866Y-66142136D01*
X123721348Y-65793001D01*
X127124011Y-65793001D01*
X127258667Y-66469964D01*
X127642136Y-67043866D01*
X128216038Y-67427335D01*
X128722121Y-67528001D01*
X130863881Y-67528001D01*
X131369964Y-67427335D01*
X131379445Y-67421000D01*
X140383465Y-67421000D01*
X140624887Y-67521000D01*
X141315113Y-67521000D01*
X141952799Y-67256862D01*
X142440862Y-66768799D01*
X142705000Y-66131113D01*
X142705000Y-65440887D01*
X142440862Y-64803201D01*
X141952799Y-64315138D01*
X141315113Y-64051000D01*
X140624887Y-64051000D01*
X140383465Y-64151000D01*
X133272735Y-64151000D01*
X133527335Y-63769964D01*
X133661991Y-63093001D01*
X133646929Y-63017279D01*
X144553282Y-63017279D01*
X144565000Y-63279208D01*
X144565000Y-63541385D01*
X144578149Y-63573130D01*
X144579685Y-63607458D01*
X144754741Y-64030080D01*
X144769358Y-64034749D01*
X144791078Y-64087185D01*
X145208815Y-64504922D01*
X145261251Y-64526642D01*
X145265920Y-64541259D01*
X145512392Y-64630668D01*
X145754615Y-64731000D01*
X145788976Y-64731000D01*
X145821279Y-64742718D01*
X146083208Y-64731000D01*
X146345385Y-64731000D01*
X146377130Y-64717851D01*
X146411458Y-64716315D01*
X146834080Y-64541259D01*
X146838749Y-64526642D01*
X146891185Y-64504922D01*
X147308922Y-64087185D01*
X147330642Y-64034749D01*
X147345259Y-64030080D01*
X147434668Y-63783608D01*
X147535000Y-63541385D01*
X147535000Y-63507024D01*
X147546718Y-63474721D01*
X147535000Y-63212792D01*
X147535000Y-62950615D01*
X147521851Y-62918870D01*
X147520315Y-62884542D01*
X147345259Y-62461920D01*
X147330642Y-62457251D01*
X147308922Y-62404815D01*
X146891185Y-61987078D01*
X146838749Y-61965358D01*
X146834080Y-61950741D01*
X146587608Y-61861332D01*
X146345385Y-61761000D01*
X146311024Y-61761000D01*
X146278721Y-61749282D01*
X146016792Y-61761000D01*
X145754615Y-61761000D01*
X145722870Y-61774149D01*
X145688542Y-61775685D01*
X145265920Y-61950741D01*
X145261251Y-61965358D01*
X145208815Y-61987078D01*
X144791078Y-62404815D01*
X144769358Y-62457251D01*
X144754741Y-62461920D01*
X144665332Y-62708392D01*
X144565000Y-62950615D01*
X144565000Y-62984976D01*
X144553282Y-63017279D01*
X133646929Y-63017279D01*
X133527335Y-62416038D01*
X133143866Y-61842136D01*
X132569964Y-61458667D01*
X132063881Y-61358001D01*
X129922121Y-61358001D01*
X129416038Y-61458667D01*
X128842136Y-61842136D01*
X128458667Y-62416038D01*
X128324011Y-63093001D01*
X128458667Y-63769964D01*
X128659456Y-64070466D01*
X128216038Y-64158667D01*
X127642136Y-64542136D01*
X127258667Y-65116038D01*
X127124011Y-65793001D01*
X123721348Y-65793001D01*
X123669963Y-65758667D01*
X122993001Y-65624011D01*
X122316038Y-65758667D01*
X121818000Y-66091445D01*
X121818000Y-53842346D01*
X125507974Y-53842346D01*
X125515000Y-54268390D01*
X125515000Y-54694569D01*
X125522320Y-54712240D01*
X125522635Y-54731363D01*
X125834640Y-55484610D01*
X125844347Y-55489682D01*
X125855259Y-55516026D01*
X126483974Y-56144741D01*
X126510318Y-56155653D01*
X126515390Y-56165360D01*
X126911708Y-56321914D01*
X127305431Y-56485000D01*
X127324560Y-56485000D01*
X127342346Y-56492026D01*
X127768390Y-56485000D01*
X128194569Y-56485000D01*
X128212240Y-56477680D01*
X128231363Y-56477365D01*
X128984610Y-56165360D01*
X128989682Y-56155653D01*
X129016026Y-56144741D01*
X129644741Y-55516026D01*
X129655653Y-55489682D01*
X129665360Y-55484610D01*
X129821914Y-55088292D01*
X129985000Y-54694569D01*
X129985000Y-54675440D01*
X129992026Y-54657654D01*
X129985000Y-54231610D01*
X129985000Y-53805431D01*
X129977680Y-53787760D01*
X129977365Y-53768637D01*
X129747213Y-53213000D01*
X139709974Y-53213000D01*
X139725400Y-53290552D01*
X139725401Y-56515000D01*
X139725400Y-56515000D01*
X139725400Y-59485448D01*
X139709974Y-59563000D01*
X139725400Y-59640552D01*
X139725400Y-59690000D01*
X139746529Y-59746778D01*
X139771085Y-59870228D01*
X139819353Y-59942467D01*
X139833938Y-59981658D01*
X139855377Y-60004719D01*
X139866221Y-60029973D01*
X139896848Y-60058446D01*
X139945116Y-60130684D01*
X140017354Y-60178952D01*
X140045827Y-60209579D01*
X140071081Y-60220423D01*
X140094142Y-60241862D01*
X140133333Y-60256447D01*
X140205572Y-60304715D01*
X140329022Y-60329270D01*
X140385800Y-60350400D01*
X140435248Y-60350400D01*
X140512800Y-60365826D01*
X140590352Y-60350400D01*
X152424048Y-60350400D01*
X152501600Y-60365826D01*
X152579152Y-60350400D01*
X152628600Y-60350400D01*
X152685378Y-60329270D01*
X152808828Y-60304715D01*
X152881067Y-60256447D01*
X152920258Y-60241862D01*
X152943319Y-60220423D01*
X152968573Y-60209579D01*
X152997046Y-60178952D01*
X153069284Y-60130684D01*
X153117552Y-60058446D01*
X153148179Y-60029973D01*
X153159023Y-60004719D01*
X153180462Y-59981658D01*
X153195047Y-59942467D01*
X153243315Y-59870228D01*
X153267871Y-59746778D01*
X153289000Y-59690000D01*
X153289000Y-59640552D01*
X153304426Y-59563000D01*
X153289000Y-59485448D01*
X153289000Y-58547000D01*
X153744848Y-58547000D01*
X153822400Y-58562426D01*
X154129628Y-58501315D01*
X154240784Y-58427043D01*
X154289373Y-58406179D01*
X154317846Y-58375552D01*
X154390084Y-58327284D01*
X154460012Y-58222629D01*
X154501262Y-58178258D01*
X154515847Y-58139067D01*
X154564115Y-58066828D01*
X154588670Y-57943378D01*
X154609800Y-57886600D01*
X154609800Y-54889400D01*
X154588670Y-54832622D01*
X154564115Y-54709172D01*
X154515847Y-54636933D01*
X154501262Y-54597742D01*
X154460012Y-54553371D01*
X154390084Y-54448716D01*
X154317846Y-54400448D01*
X154289373Y-54369821D01*
X154240783Y-54348957D01*
X154129627Y-54274685D01*
X153822400Y-54213574D01*
X153744848Y-54229000D01*
X153289000Y-54229000D01*
X153289000Y-53290552D01*
X153304426Y-53213000D01*
X153289000Y-53135448D01*
X153289000Y-53086000D01*
X153267871Y-53029222D01*
X153243315Y-52905772D01*
X153195047Y-52833533D01*
X153180462Y-52794342D01*
X153159023Y-52771281D01*
X153148179Y-52746027D01*
X153117552Y-52717554D01*
X153069284Y-52645316D01*
X152997046Y-52597048D01*
X152968573Y-52566421D01*
X152943319Y-52555577D01*
X152920258Y-52534138D01*
X152881067Y-52519553D01*
X152808828Y-52471285D01*
X152685378Y-52446730D01*
X152628600Y-52425600D01*
X152579152Y-52425600D01*
X152501600Y-52410174D01*
X152424048Y-52425600D01*
X147193269Y-52425600D01*
X147208426Y-52349400D01*
X147193000Y-52271848D01*
X147193000Y-52222400D01*
X147171871Y-52165622D01*
X147147315Y-52042172D01*
X147099047Y-51969933D01*
X147084462Y-51930742D01*
X147063023Y-51907681D01*
X147052179Y-51882427D01*
X147021552Y-51853954D01*
X146973284Y-51781716D01*
X146901046Y-51733448D01*
X146872573Y-51702821D01*
X146847319Y-51691977D01*
X146824258Y-51670538D01*
X146785067Y-51655953D01*
X146712828Y-51607685D01*
X146589378Y-51583130D01*
X146532600Y-51562000D01*
X146483152Y-51562000D01*
X146405600Y-51546574D01*
X146328048Y-51562000D01*
X143993952Y-51562000D01*
X143916400Y-51546574D01*
X143838848Y-51562000D01*
X143789400Y-51562000D01*
X143732622Y-51583130D01*
X143609172Y-51607685D01*
X143536933Y-51655953D01*
X143497742Y-51670538D01*
X143474681Y-51691977D01*
X143449427Y-51702821D01*
X143420954Y-51733448D01*
X143348716Y-51781716D01*
X143300448Y-51853954D01*
X143269821Y-51882427D01*
X143258977Y-51907681D01*
X143237538Y-51930742D01*
X143222953Y-51969933D01*
X143174685Y-52042172D01*
X143150129Y-52165622D01*
X143129000Y-52222400D01*
X143129000Y-52271848D01*
X143113574Y-52349400D01*
X143128731Y-52425600D01*
X140590352Y-52425600D01*
X140512800Y-52410174D01*
X140435248Y-52425600D01*
X140385800Y-52425600D01*
X140329022Y-52446730D01*
X140205572Y-52471285D01*
X140133333Y-52519553D01*
X140094142Y-52534138D01*
X140071081Y-52555577D01*
X140045827Y-52566421D01*
X140017354Y-52597048D01*
X139945116Y-52645316D01*
X139896848Y-52717554D01*
X139866221Y-52746027D01*
X139855377Y-52771281D01*
X139833938Y-52794342D01*
X139819353Y-52833533D01*
X139771085Y-52905772D01*
X139746529Y-53029222D01*
X139725400Y-53086000D01*
X139725400Y-53135448D01*
X139709974Y-53213000D01*
X129747213Y-53213000D01*
X129665360Y-53015390D01*
X129655653Y-53010318D01*
X129644741Y-52983974D01*
X129016026Y-52355259D01*
X128989682Y-52344347D01*
X128984610Y-52334640D01*
X128588292Y-52178086D01*
X128194569Y-52015000D01*
X128175440Y-52015000D01*
X128157654Y-52007974D01*
X127731610Y-52015000D01*
X127305431Y-52015000D01*
X127287760Y-52022320D01*
X127268637Y-52022635D01*
X126515390Y-52334640D01*
X126510318Y-52344347D01*
X126483974Y-52355259D01*
X125855259Y-52983974D01*
X125844347Y-53010318D01*
X125834640Y-53015390D01*
X125678086Y-53411708D01*
X125515000Y-53805431D01*
X125515000Y-53824560D01*
X125507974Y-53842346D01*
X121818000Y-53842346D01*
X121818000Y-49682000D01*
X162916001Y-49682000D01*
X162916000Y-86970000D01*
G36*
X151714201Y-80391000D02*
X151714200Y-80391000D01*
X151714200Y-82651600D01*
X146483152Y-82651600D01*
X146405600Y-82636174D01*
X146328048Y-82651600D01*
X143993952Y-82651600D01*
X143916400Y-82636174D01*
X143838848Y-82651600D01*
X141300200Y-82651600D01*
X141300200Y-77876400D01*
X151714200Y-77876400D01*
X151714201Y-80391000D01*
X151714201Y-80391000D01*
G37*
X151714201Y-80391000D02*
X151714200Y-80391000D01*
X151714200Y-82651600D01*
X146483152Y-82651600D01*
X146405600Y-82636174D01*
X146328048Y-82651600D01*
X143993952Y-82651600D01*
X143916400Y-82636174D01*
X143838848Y-82651600D01*
X141300200Y-82651600D01*
X141300200Y-77876400D01*
X151714200Y-77876400D01*
X151714201Y-80391000D01*
G36*
X143916400Y-54015826D02*
X143993952Y-54000400D01*
X146328048Y-54000400D01*
X146405600Y-54015826D01*
X146483152Y-54000400D01*
X151714200Y-54000400D01*
X151714201Y-56515000D01*
X151714200Y-56515000D01*
X151714200Y-58775600D01*
X141300200Y-58775600D01*
X141300200Y-54000400D01*
X143838848Y-54000400D01*
X143916400Y-54015826D01*
X143916400Y-54015826D01*
G37*
X143916400Y-54015826D02*
X143993952Y-54000400D01*
X146328048Y-54000400D01*
X146405600Y-54015826D01*
X146483152Y-54000400D01*
X151714200Y-54000400D01*
X151714201Y-56515000D01*
X151714200Y-56515000D01*
X151714200Y-58775600D01*
X141300200Y-58775600D01*
X141300200Y-54000400D01*
X143838848Y-54000400D01*
X143916400Y-54015826D01*
M02*
